<?xml version="1.0" standalone="no"?>
<!DOCTYPE svg PUBLIC "-//W3C//DTD SVG 20010904//EN"
 "http://www.w3.org/TR/2001/REC-SVG-20010904/DTD/svg10.dtd">
<svg version="1.0" xmlns="http://www.w3.org/2000/svg"
 width="256.000000pt" height="256.000000pt" viewBox="0 0 256.000000 256.000000"
 preserveAspectRatio="xMidYMid meet">
<metadata>
Created by potrace 1.11, written by Peter Selinger 2001-2013
</metadata>
<g transform="translate(0.000000,256.000000) scale(0.100000,-0.100000)"
fill="#000000" stroke="none">
<path d="M1191 2540 c-76 -35 -130 -115 -131 -192 l0 -38 -57 -1 c-32 0 -100
0 -151 0 -84 1 -95 -2 -99 -18 -4 -17 -16 -19 -134 -20 -71 0 -138 -5 -148
-10 -10 -6 -20 -9 -22 -6 -2 2 -22 -9 -44 -24 -49 -33 -93 -95 -105 -147 -6
-22 -10 -436 -10 -956 0 -996 -2 -960 56 -1035 13 -18 46 -45 72 -60 l47 -28
815 0 815 0 48 28 c60 36 103 94 117 160 8 37 10 323 8 977 l-3 925 -27 45
c-32 55 -67 86 -126 112 -37 17 -66 20 -173 20 -119 0 -129 1 -129 18 0 17
-10 19 -132 19 -73 0 -143 0 -155 0 -19 1 -23 7 -23 35 0 113 -88 203 -207
212 -45 4 -68 0 -102 -16z m144 -145 c16 -15 25 -36 25 -55 l0 -30 -80 0 -80
0 0 30 c0 41 39 80 80 80 19 0 40 -9 55 -25z m-582 -310 c4 -28 15 -48 37 -67
l30 -28 459 0 459 0 31 25 c21 19 32 38 36 69 l7 42 118 -1 c127 -2 157 -12
181 -57 9 -17 12 -252 12 -935 0 -829 -2 -914 -17 -937 -9 -14 -25 -30 -36
-36 -28 -15 -1552 -15 -1580 0 -11 6 -27 22 -36 36 -15 22 -17 109 -17 940 0
898 1 916 20 942 28 38 64 47 185 47 l106 1 5 -41z"/>
<path d="M780 1629 c0 -46 4 -79 10 -80 6 0 37 0 70 0 33 0 65 0 70 0 6 1 10
35 10 81 l0 80 -80 -1 -80 -1 0 -79z"/>
<path d="M1129 1679 c0 -16 -2 -51 -2 -79 l-2 -50 55 -1 c64 -1 581 0 593 0 4
1 7 37 7 81 l0 79 -325 0 -325 0 -1 -30z"/>
<path d="M780 1160 l0 -80 80 0 80 0 0 80 0 80 -80 0 -80 0 0 -80z"/>
<path d="M1129 1220 c0 -11 -1 -36 -1 -55 0 -19 1 -46 1 -60 l1 -25 325 0 325
0 0 80 0 80 -325 0 c-318 0 -325 0 -326 -20z"/>
<path d="M832 772 l-53 -3 3 -77 3 -77 75 0 75 0 3 76 3 77 -28 3 c-15 2 -52
3 -81 1z"/>
<path d="M1129 748 c-1 -36 -1 -93 0 -116 1 -17 21 -18 324 -17 l322 0 3 78
c3 74 2 77 -20 77 -13 1 -159 2 -326 3 l-302 2 -1 -27z"/>
</g>
</svg>
